<?xml version="1.0" standalone="no"?>
<!DOCTYPE svg PUBLIC "-//W3C//DTD SVG 20010904//EN"
 "http://www.w3.org/TR/2001/REC-SVG-20010904/DTD/svg10.dtd">
<svg version="1.0" xmlns="http://www.w3.org/2000/svg"
 width="512.000000pt" height="512.000000pt" viewBox="0 0 512.000000 512.000000"
 preserveAspectRatio="xMidYMid meet">
<metadata>
Created by potrace 1.14, written by Peter Selinger 2001-2017
</metadata>
<g transform="translate(0.000000,512.000000) scale(0.100000,-0.100000)"
fill="#000000" stroke="none">
<path d="M1898 4566 c-1 -2 -32 -6 -68 -10 -107 -10 -189 -35 -279 -83 -88
-47 -115 -67 -185 -133 -82 -77 -167 -209 -198 -305 -19 -61 -37 -141 -38
-167 0 -16 -6 -28 -12 -29 -133 -9 -311 -81 -418 -169 -225 -188 -329 -462
-283 -747 7 -45 22 -108 34 -140 33 -89 107 -207 168 -269 47 -46 53 -57 40
-64 -91 -52 -206 -164 -271 -265 -90 -140 -127 -275 -123 -450 7 -286 161
-536 415 -672 81 -44 249 -94 282 -85 12 3 25 -31 32 -85 9 -71 47 -172 95
-253 101 -169 270 -299 471 -361 59 -18 99 -23 185 -23 61 -1 131 3 156 7 53
8 161 42 202 63 30 16 32 14 41 -37 15 -90 117 -223 204 -268 37 -19 58 -21
214 -21 172 0 173 0 223 29 99 57 167 158 201 298 2 9 19 5 56 -11 100 -44
184 -60 318 -60 103 0 138 4 200 23 206 64 372 193 476 370 44 74 69 144 96
266 10 48 17 60 33 61 20 2 46 7 100 19 47 11 136 46 185 74 340 191 488 576
364 949 -51 155 -190 331 -321 409 -24 14 -43 28 -43 32 0 3 21 26 46 51 237
229 287 625 117 927 -123 222 -374 387 -610 402 -7 1 -13 13 -13 29 -1 26 -18
104 -38 167 -5 17 -22 55 -37 85 -205 405 -692 559 -1085 344 -88 -49 -172
-120 -245 -206 l-27 -32 -25 33 c-69 88 -163 164 -274 219 -96 48 -175 71
-269 78 -36 3 -70 7 -77 9 -6 2 -13 2 -15 1z"/>
</g>
</svg>
